<svg xmlns="http://www.w3.org/2000/svg" viewBox="0 0 512 512" width="512" height="512">
  <defs>
    <linearGradient id="tile" x1="0" y1="0" x2="1" y2="1">
      <stop offset="0" stop-color="#29B6F6"/>
      <stop offset="1" stop-color="#0277BD"/>
    </linearGradient>
    <linearGradient id="gloss" x1="0" y1="0" x2="0" y2="1">
      <stop offset="0" stop-color="#FFFFFF" stop-opacity="0.18"/>
      <stop offset="0.5" stop-color="#FFFFFF" stop-opacity="0"/>
    </linearGradient>
  </defs>
  <rect x="32" y="32" width="448" height="448" rx="112" fill="url(#tile)"/>
  <g><line x1="107" y1="64" x2="107" y2="448" stroke="#FFFFFF" stroke-opacity="0.11" stroke-width="2"/><line x1="64" y1="107" x2="448" y2="107" stroke="#FFFFFF" stroke-opacity="0.11" stroke-width="2"/><line x1="181" y1="64" x2="181" y2="448" stroke="#FFFFFF" stroke-opacity="0.11" stroke-width="2"/><line x1="64" y1="181" x2="448" y2="181" stroke="#FFFFFF" stroke-opacity="0.11" stroke-width="2"/><line x1="256" y1="64" x2="256" y2="448" stroke="#FFFFFF" stroke-opacity="0.11" stroke-width="2"/><line x1="64" y1="256" x2="448" y2="256" stroke="#FFFFFF" stroke-opacity="0.11" stroke-width="2"/><line x1="331" y1="64" x2="331" y2="448" stroke="#FFFFFF" stroke-opacity="0.11" stroke-width="2"/><line x1="64" y1="331" x2="448" y2="331" stroke="#FFFFFF" stroke-opacity="0.11" stroke-width="2"/><line x1="405" y1="64" x2="405" y2="448" stroke="#FFFFFF" stroke-opacity="0.11" stroke-width="2"/><line x1="64" y1="405" x2="448" y2="405" stroke="#FFFFFF" stroke-opacity="0.11" stroke-width="2"/></g>
  <line x1="64" y1="256" x2="448" y2="256" stroke="#FFFFFF" stroke-opacity="0.20" stroke-width="2.5"/>
  <polyline points="76.0,287.6 78.4,291.5 80.8,295.1 83.2,298.6 85.6,301.9 88.0,304.9 90.4,307.8 92.8,310.4 95.2,312.8 97.6,314.9 100.0,316.8 102.4,318.4 104.8,319.7 107.2,320.7 109.6,321.4 112.0,321.9 114.4,322.0 116.8,321.8 119.2,321.4 121.6,320.7 124.0,319.6 126.4,318.3 128.8,316.7 131.2,314.8 133.6,312.7 136.0,310.3 138.4,307.7 140.8,304.8 143.2,301.7 145.6,298.4 148.0,294.9 150.4,291.3 152.8,287.5 155.2,283.5 157.6,279.4 160.0,275.2 162.4,271.0 164.8,266.6 167.2,262.2 169.6,257.8 172.0,253.4 174.4,249.0 176.8,244.6 179.2,240.3 181.6,236.0 184.0,231.9 186.4,227.8 188.8,223.9 191.2,220.1 193.6,216.5 196.0,213.0 198.4,209.7 200.8,206.7 203.2,203.9 205.6,201.3 208.0,198.9 210.4,196.8 212.8,195.0 215.2,193.5 217.6,192.2 220.0,191.2 222.4,190.5 224.8,190.1 227.2,190.0 229.6,190.2 232.0,190.7 234.4,191.5 236.8,192.5 239.2,193.9 241.6,195.5 244.0,197.4 246.4,199.6 248.8,202.0 251.2,204.7 253.6,207.6 256.0,210.7 258.4,214.0 260.8,217.5 263.2,221.2 265.6,225.0 268.0,229.0 270.4,233.1 272.8,237.3 275.2,241.6 277.6,245.9 280.0,250.3 282.4,254.7 284.8,259.1 287.2,263.5 289.6,267.9 292.0,272.2 294.4,276.5 296.8,280.6 299.2,284.7 301.6,288.6 304.0,292.4 306.4,296.0 308.8,299.4 311.2,302.6 313.6,305.7 316.0,308.5 318.4,311.0 320.8,313.3 323.2,315.4 325.6,317.2 328.0,318.7 330.4,320.0 332.8,320.9 335.2,321.6 337.6,321.9 340.0,322.0 342.4,321.8 344.8,321.2 347.2,320.4 349.6,319.3 352.0,317.9 354.4,316.3 356.8,314.3 359.2,312.1 361.6,309.7 364.0,307.0 366.4,304.0 368.8,300.9 371.2,297.6 373.6,294.0 376.0,290.3 378.4,286.5 380.8,282.5 383.2,278.4 385.6,274.2 388.0,269.9 390.4,265.5 392.8,261.1 395.2,256.7 397.6,252.3 400.0,247.9 402.4,243.5 404.8,239.2 407.2,235.0 409.6,230.8 412.0,226.8 414.4,222.9 416.8,219.2 419.2,215.6 421.6,212.2 424.0,209.0 426.4,206.0 428.8,203.2 431.2,200.7 433.6,198.4 436.0,196.4" fill="none" stroke="#FFFFFF"
            stroke-width="19" stroke-linecap="round" stroke-linejoin="round"/>
  <polyline points="200.0,256.0 201.2,256.5 202.3,257.8 203.5,259.5 204.7,261.2 205.8,262.3 207.0,262.2 208.1,260.7 209.3,257.8 210.5,253.7 211.6,249.0 212.8,244.5 214.0,241.0 215.1,239.4 216.3,240.2 217.5,243.5 218.6,249.2 219.8,256.6 220.9,264.8 222.1,272.6 223.3,278.6 224.4,281.9 225.6,281.7 226.8,277.7 227.9,270.3 229.1,260.3 230.3,249.0 231.4,237.9 232.6,228.8 233.7,223.0 234.9,221.6 236.1,225.0 237.2,232.9 238.4,244.5 239.6,258.2 240.7,272.1 241.9,284.2 243.1,292.9 244.2,296.7 245.4,294.9 246.5,287.6 247.7,275.8 248.9,260.9 250.0,245.0 251.2,230.3 252.4,218.9 253.5,212.4 254.7,211.9 255.9,217.4 257.0,228.3 258.2,243.2 259.3,259.9 260.5,276.2 261.7,289.8 262.8,298.8 264.0,302.0 265.2,298.8 266.3,289.8 267.5,276.2 268.7,259.9 269.8,243.2 271.0,228.3 272.1,217.4 273.3,211.9 274.5,212.4 275.6,218.9 276.8,230.3 278.0,245.0 279.1,260.9 280.3,275.8 281.5,287.6 282.6,294.9 283.8,296.7 284.9,292.9 286.1,284.2 287.3,272.1 288.4,258.2 289.6,244.5 290.8,232.9 291.9,225.0 293.1,221.6 294.3,223.0 295.4,228.8 296.6,237.9 297.7,249.0 298.9,260.3 300.1,270.3 301.2,277.7 302.4,281.7 303.6,281.9 304.7,278.6 305.9,272.6 307.1,264.8 308.2,256.6 309.4,249.2 310.5,243.5 311.7,240.2 312.9,239.4 314.0,241.0 315.2,244.5 316.4,249.0 317.5,253.7 318.7,257.8 319.9,260.7 321.0,262.2 322.2,262.3 323.3,261.2 324.5,259.5 325.7,257.8 326.8,256.5 328.0,256.0" fill="none" stroke="#FF9800"
            stroke-width="10" stroke-linecap="round" stroke-linejoin="round"/>
  <circle cx="432" cy="196" r="12" fill="#FF9800"/>
  <rect x="32" y="32" width="448" height="448" rx="112" fill="url(#gloss)"/>
</svg>